<svg xmlns="http://www.w3.org/2000/svg" version="1.1" xmlns:xlink="http://www.w3.org/1999/xlink" xmlns:svgjs="http://svgjs.dev/svgjs" viewBox="0 0 600 600" opacity="0.95"><path d="M336.3036695039199 233.76646035986636C316.27749305128305 219.23766702490542 276.6178021943491 205.23243580338846 253.0575910127074 214.9183005698273C229.49737983106553 224.60416533626614 196.7748634532985 268.9758923260122 194.94240241407326 291.88164895849917C193.109941374848 314.78740559098617 231.32983832715948 331.6722119060903 242.06282477735527 352.35284036474917C252.79581122755118 373.03346882340804 241.93194505730315 412.16960773942367 259.3403211152464 415.9654197104523C276.7486971731903 419.7612316814809 327.5340263561334 394.1067720460643 346.51308112501374 375.12771219092105C365.4921358938942 356.1486523357778 374.9162183320452 325.651269218102 373.2146497285296 302.0910605795929C371.51308112501397 278.5308519410838 356.32984595655694 248.2952536948273 336.3036695039199 233.76646035986636C316.27749305128305 219.23766702490542 276.6178021943491 205.23243580338846 253.0575910127074 214.9183005698273 " fill="url(&quot;#ssshape-pattern5&quot;)" transform="matrix(1.4737618051795904,0,0,1.4737618051795904,-124.97814054518187,-156.36277571280306)" fill-opacity="0.35"></path><defs><pattern id="ssshape-pattern5" width="20" height="20" patternUnits="userSpaceOnUse">
  <rect width="100%" height="100%" fill="hsl(30, 100%, 50%)"></rect>
  <rect width="5" height="5" fill="hsl(162, 77%, 62%)"></rect>
</pattern><pattern id="ssshape-pattern6" width="40" height="40" patternUnits="userSpaceOnUse">
  <rect width="100%" height="100%" fill="hsl(30, 100%, 50%)"></rect>
  <polygon points="30 22 38 38 22 38" fill="hsl(162, 77%, 62%)"></polygon>
  <polygon transform="translate(11.000000, 10.000000) scale(1, -1) translate(-11.000000, -10.000000) " points="11 2 19 18 3 18" fill="hsl(162, 77%, 62%)" fill-opacity="0.5"></polygon>
</pattern></defs><path d="M99.63212331807165 55.495791863547936C79.60594686543493 40.966998528587 39.94625600850134 26.961767307070062 16.38604482686071 36.64763207350887C-7.1741663547799135 46.333496839947685 -39.89668273254688 90.70522382969357 -41.7291437717721 113.61098046218038C-43.56160481099732 136.51673709466726 -5.3417078586861635 153.40154340977134 5.391278591509149 174.0821718684302C16.12426504170446 194.76280032708908 5.260398871457028 233.89893924310496 22.668774929399774 237.69475121413348C40.07715098734252 241.49056318516205 90.86248017028521 215.83610354974533 109.8415349391654 196.85704369460208C128.8205897080456 177.87798383945884 138.24467214619665 147.38060072178305 136.54310354268102 123.82039208327402C134.8415349391654 100.26018344476512 119.65829977070837 70.02458519850887 99.63212331807165 55.495791863547936C79.60594686543493 40.966998528587 39.94625600850134 26.961767307070062 16.38604482686071 36.64763207350887 " fill-opacity="1" fill="url(&quot;#ssshape-pattern6&quot;)" opacity="1" stroke-opacity="1" stroke-width="0" stroke="hsl(340, 45%, 30%)" transform="matrix(1.1619554431763055,4.2953470641426954e-17,-4.2953470641426954e-17,1.1619554431763055,243.26774386741883,137.54424766689033)"></path></svg>